<svg xmlns="http://www.w3.org/2000/svg" viewBox="0 0 900 600" role="img" aria-label="Mission dashboard">
  <defs>
    <linearGradient id="panel" x1="100" y1="66" x2="770" y2="540">
      <stop stop-color="#1e1b4b"/>
      <stop offset="1" stop-color="#07111f"/>
    </linearGradient>
    <linearGradient id="accent" x1="140" y1="120" x2="760" y2="475">
      <stop stop-color="#7c3aed"/>
      <stop offset=".5" stop-color="#2563eb"/>
      <stop offset="1" stop-color="#22c55e"/>
    </linearGradient>
  </defs>
  <rect width="900" height="600" rx="42" fill="#050616"/>
  <circle cx="114" cy="98" r="5" fill="#fbbf24"/>
  <circle cx="796" cy="112" r="6" fill="#93c5fd"/>
  <rect x="90" y="72" width="720" height="456" rx="42" fill="url(#panel)" stroke="#6366f1" stroke-width="3"/>
  <rect x="132" y="118" width="252" height="152" rx="28" fill="#111827" stroke="#312e81" stroke-width="3"/>
  <circle cx="188" cy="190" r="42" fill="#fbbf24"/>
  <path d="M180 162l11 20 22 3-16 16 4 23-21-11-20 11 4-23-17-16 23-3z" fill="#fff7ed"/>
  <rect x="254" y="154" width="86" height="18" rx="9" fill="#a78bfa"/>
  <rect x="254" y="190" width="102" height="18" rx="9" fill="#38bdf8"/>
  <rect x="132" y="306" width="252" height="166" rx="28" fill="#111827" stroke="#312e81" stroke-width="3"/>
  <path d="M166 426c30-72 64-74 102-23 36 47 59 18 86-57" fill="none" stroke="url(#accent)" stroke-width="16" stroke-linecap="round"/>
  <rect x="430" y="118" width="326" height="354" rx="28" fill="#111827" stroke="#312e81" stroke-width="3"/>
  <rect x="470" y="162" width="244" height="24" rx="12" fill="#312e81"/>
  <rect x="470" y="224" width="184" height="24" rx="12" fill="#2563eb"/>
  <rect x="470" y="286" width="226" height="24" rx="12" fill="#7c3aed"/>
  <rect x="470" y="348" width="152" height="24" rx="12" fill="#22c55e"/>
  <rect x="470" y="410" width="206" height="24" rx="12" fill="#fbbf24"/>
</svg>
